<svg width="173" height="28" viewBox="0 -2 153 22" fill="none" xmlns="http://www.w3.org/2000/svg">
<path d="M0.728 18H6.752C7.64 18 8.072 17.976 8.504 17.928C11.384 17.592 13.064 15.744 13.064 13.128C13.064 10.8 11.216 9.384 9.08 9.168V9.144C11.144 8.736 12.416 7.152 12.416 5.4C12.416 2.736 10.64 1.104 7.592 0.887999C7.184 0.863999 6.8 0.863999 5.648 0.863999H0.728V18ZM3.632 8.112V3.264H6.464C8.384 3.264 9.536 3.792 9.536 5.592C9.536 7.392 8.384 8.112 6.344 8.112H3.632ZM3.632 15.6V10.464H6.992C8.864 10.464 10.208 11.232 10.208 12.984C10.208 14.832 8.792 15.6 6.728 15.6H3.632ZM14.7982 0.863999V18H17.5822V0.863999H14.7982ZM25.7936 18.336C29.4656 18.336 32.1776 15.696 32.1776 11.808C32.1776 7.92 29.4656 5.256 25.7936 5.256C22.1216 5.256 19.4096 7.92 19.4096 11.808C19.4096 15.696 22.1216 18.336 25.7936 18.336ZM25.7936 16.08C23.7296 16.08 22.1936 14.304 22.1936 11.808C22.1936 9.288 23.7536 7.536 25.7936 7.536C27.8576 7.536 29.3936 9.288 29.3936 11.808C29.3936 14.304 27.8576 16.08 25.7936 16.08ZM45.4424 13.992H42.7784C42.3464 15.408 41.2424 16.128 39.7064 16.128C37.5944 16.128 35.9624 14.448 35.9624 11.808C35.9624 9.12 37.6184 7.464 39.7064 7.464C41.3384 7.464 42.2744 8.28 42.7304 9.528H45.3944C44.9144 6.984 42.8264 5.256 39.7544 5.256C36.0344 5.256 33.2264 7.824 33.2264 11.808C33.2264 15.744 36.0344 18.336 39.7544 18.336C42.7304 18.336 44.8664 16.8 45.4424 13.992ZM55.1683 18H58.5763L53.0083 10.896L58.1923 5.592H54.8563L49.9603 10.728V0.863999H47.1763V18H49.9603V14.016L51.1603 12.792L55.1683 18ZM67.3848 15.552V10.536H75.0168V8.112H67.3848V3.312H75.5208V0.863999H64.4808V18H75.5928V15.552H67.3848ZM89.153 18L84.281 11.544L89.009 5.592H85.961L82.841 9.648L79.697 5.592H76.553L81.281 11.688L76.505 18H79.577L82.721 13.608L86.009 18H89.153ZM97.262 5.256C95.126 5.256 93.686 6.504 93.23 7.848V5.592H90.35V22.776H93.206V15.744H93.23C93.734 17.232 95.126 18.36 97.262 18.36C100.55 18.36 102.902 15.624 102.902 11.76C102.902 7.92 100.55 5.256 97.262 5.256ZM96.566 16.056C94.142 16.056 93.014 14.208 93.014 11.76V11.496C93.11 9.192 94.43 7.536 96.566 7.536C98.75 7.536 100.094 9.408 100.094 11.76C100.094 14.16 98.798 16.056 96.566 16.056ZM104.732 0.863999V18H107.516V0.863999H104.732ZM115.727 18.336C119.399 18.336 122.111 15.696 122.111 11.808C122.111 7.92 119.399 5.256 115.727 5.256C112.055 5.256 109.343 7.92 109.343 11.808C109.343 15.696 112.055 18.336 115.727 18.336ZM115.727 16.08C113.663 16.08 112.127 14.304 112.127 11.808C112.127 9.288 113.687 7.536 115.727 7.536C117.791 7.536 119.327 9.288 119.327 11.808C119.327 14.304 117.791 16.08 115.727 16.08ZM130.264 8.136V5.352C128.296 5.448 127.096 6.552 126.616 8.232H126.568V5.592H123.832V18H126.616V12.12C126.616 9.672 127.912 8.16 130.264 8.136ZM142.842 12.024C142.818 8.52 141.09 5.256 136.866 5.256C133.242 5.256 130.602 7.992 130.602 11.76C130.602 15.672 133.146 18.336 136.866 18.336C139.794 18.336 141.93 16.848 142.674 14.328H139.914C139.458 15.576 138.282 16.104 136.866 16.104C134.922 16.104 133.482 14.808 133.29 12.552H142.842V12.024ZM133.338 10.536C133.626 8.64 134.922 7.416 136.842 7.416C138.762 7.416 139.89 8.592 140.082 10.536H133.338ZM151.007 8.136V5.352C149.039 5.448 147.839 6.552 147.359 8.232H147.311V5.592H144.575V18H147.359V12.12C147.359 9.672 148.655 8.16 151.007 8.136Z" fill="url(#paint0_linear_559_955)"/>
<defs>
<linearGradient id="paint0_linear_559_955" x1="6.04951" y1="-14.0896" x2="165.263" y2="65.1039" gradientUnits="userSpaceOnUse">
<stop stop-color="#1C1E90"/>
<stop offset="0.405285" stop-color="#693590"/>
<stop offset="0.585617" stop-color="#D81D54"/>
<stop offset="0.588542" stop-color="#D81E54"/>
<stop offset="0.973958" stop-color="#FD6B52"/>
</linearGradient>
</defs>
</svg>
