<svg width="125" height="40" viewBox="110 -5 25 80" fill="none" xmlns="http://www.w3.org/2000/svg">
<g clip-path="url(#clip0_9_51)">
<path d="M83.3348 53.4991C70.7069 53.4991 62.7913 44.5941 62.7913 32.636C62.7913 20.7936 70.7766 11.773 83.4045 11.773C93.595 11.773 99.5376 17.0235 102.021 24.8644H95.2199C93.0611 20.0072 89.5559 17.5323 83.3813 17.5323C74.7692 17.5323 69.6159 24.2399 69.6159 32.6592C69.6159 41.0784 74.7692 47.786 83.3813 47.786C89.997 47.786 93.5718 44.8485 95.2199 40.4539H102.021C100.164 47.9248 93.4789 53.4991 83.3348 53.4991Z" fill="black"/>
<path d="M130.782 52.782H124.097C123.888 51.4868 123.795 50.1915 123.818 48.8963V48.0405H123.772C122.751 50.7004 120.104 53.5222 114.487 53.5222C107.917 53.5222 104.18 49.4514 104.18 44.8254C104.18 36.3599 114.139 36.1286 118.34 35.4579C122.194 34.8334 123.772 34.2783 123.772 31.8496C123.772 29.421 121.683 27.8482 118.108 27.8482C114.928 27.8482 112.676 29.606 112.49 32.5204H106.084C106.362 27.7325 110.169 22.7596 117.969 22.7596C127.718 22.7596 130.202 28.5652 130.202 34.8334V46.0513C130.225 48.2718 130.341 51.2555 130.782 52.782ZM123.935 36.2905C123.261 38.0484 121.613 39.3899 116.808 40.2457C112.792 40.9859 110.703 42.0961 110.703 44.7098C110.703 47.0227 112.746 48.7112 116.135 48.7112C120.151 48.7112 123.958 45.8431 123.958 39.3437L123.935 36.2905Z" fill="black"/>
<path d="M145.174 27.7788C142.621 27.7788 140.416 29.3054 140.416 31.387C140.416 34.2089 143.805 34.9953 148.726 36.1286C153.879 37.262 157.617 39.6906 157.617 44.3628C157.617 50.1684 151.999 53.5685 145.546 53.5685C139.557 53.5685 133.893 50.8623 133.197 43.854H139.696C140.253 47.069 142.25 48.5262 145.639 48.5262C148.424 48.5262 151.024 47.3928 151.024 44.6866C151.024 41.8186 148.146 41.356 143.434 40.2226C138.744 39.1586 134.032 36.9613 134.032 31.6415C134.032 26.3216 139.232 22.7828 145.244 22.7828C151.581 22.7828 156.34 25.9978 157.013 32.3122H150.815C150.374 29.1435 147.821 27.7788 145.174 27.7788Z" fill="black"/>
<path d="M190.51 38.1178C190.51 47.2078 184.962 53.6379 177.209 53.6379C172.171 53.6379 168.898 50.9779 167.691 47.4853H167.645V64.0231H160.913V23.6155H167.715V28.9122C168.782 25.7434 172.195 22.829 177.232 22.829C184.962 22.829 190.51 29.0741 190.51 38.1178ZM183.894 38.1178C183.894 32.5898 180.714 28.1951 175.584 28.1951C170.547 28.1951 167.436 32.0809 167.204 37.4933V38.1178C167.204 43.8771 169.873 48.2255 175.584 48.2255C180.83 48.2024 183.894 43.7383 183.894 38.1178Z" fill="black"/>
<path d="M221.313 39.9682H198.773C199.238 45.2649 202.627 48.318 207.2 48.318C210.542 48.318 213.305 47.069 214.396 44.1547H220.896C219.131 50.0759 214.094 53.5685 207.2 53.5685C198.425 53.5685 192.413 47.3003 192.413 38.1178C192.413 29.2591 198.634 22.829 207.2 22.829C217.158 22.829 221.244 30.5081 221.29 38.7423L221.313 39.9682ZM214.814 35.2266C214.349 30.6469 211.703 27.8945 207.177 27.8945C202.65 27.8945 199.586 30.7625 198.913 35.2266H214.814Z" fill="black"/>
<path d="M231.388 38.9505V52.7821H224.819V23.6155H231.272V29.8142H231.388C232.525 25.8591 235.357 23.2685 240 23.0372V29.6061C234.452 29.6523 231.388 33.1912 231.388 38.9505Z" fill="black"/>
<path d="M52.6703 49.4514C51.1382 49.4514 49.8383 50.5153 49.5133 51.9956L37.3264 51.4174C37.3728 51.1861 37.396 50.9548 37.396 50.7235C37.396 50.3072 37.3264 49.8908 37.2103 49.4745L41.644 46.9302C42.7815 48.3411 44.8474 48.5493 46.2634 47.416C47.6794 46.2826 47.8884 44.224 46.7509 42.8131C45.6135 41.4022 43.5475 41.194 42.1315 42.3274C40.9244 43.2989 40.5762 44.9642 41.2726 46.352L36.955 48.8037C35.8872 46.5602 33.2177 45.6118 30.9892 46.6758C28.9001 47.6472 27.9019 50.0527 28.6679 52.2038L20.7058 54.1467C20.6594 53.0596 20.1952 52.0419 19.4291 51.2555L20.8683 49.2663C22.5629 49.8446 24.4199 48.9425 25.0003 47.254C25.5806 45.5656 24.6753 43.7152 22.9807 43.1369C21.2862 42.5587 19.4291 43.4608 18.8488 45.1492C18.3613 46.5833 18.9184 48.1561 20.2184 48.9656L18.8952 50.7929C17.9667 50.099 16.7828 49.7983 15.6222 49.9602L14.2526 42.1655C16.6668 41.6335 18.1988 39.2512 17.6649 36.8457C17.131 34.4402 14.7401 32.9136 12.3259 33.4456C11.9313 33.5381 11.5599 33.6769 11.1885 33.8619L7.72973 27.1312C8.47255 26.7611 9.07609 26.1828 9.51714 25.489L12.3956 26.2522C12.3723 26.4141 12.3491 26.5529 12.3491 26.7148C12.3491 28.4958 13.7883 29.953 15.5758 29.9761C17.3632 29.9761 18.8256 28.5421 18.8488 26.7611C18.8488 24.9801 17.4096 23.5229 15.6222 23.4998C14.2758 23.4998 13.0455 24.3325 12.5813 25.5815L9.86533 24.8645C10.2367 23.9855 10.3064 23.0141 10.0743 22.0889L18.0363 18.4344C19.5684 20.3773 22.4004 20.678 24.3503 19.1514C26.1377 17.7174 26.5788 15.1731 25.3252 13.2533L30.4321 8.28043C31.0589 8.67363 31.7785 8.92806 32.4981 8.97432V11.1716C30.7339 11.3567 29.434 12.9526 29.6429 14.7105C29.8518 16.4684 31.4303 17.7636 33.1945 17.5555C34.9587 17.3473 36.2586 15.7745 36.0497 14.0166C35.8872 12.5132 34.7033 11.3336 33.1945 11.1716V8.97432C33.8444 8.92806 34.448 8.74302 35.0051 8.44233L40.5995 14.803C39.0906 16.769 39.462 19.5677 41.4351 21.0712C43.4082 22.5746 46.217 22.2045 47.7259 20.2385C48.6544 19.0358 48.9097 17.4398 48.3758 16.0058L50.1168 15.0343C51.2543 16.399 53.297 16.5609 54.6666 15.4275C56.0362 14.2942 56.1986 12.2587 55.0612 10.8941C53.9238 9.52943 51.881 9.36752 50.5114 10.5009C49.3508 11.4723 49.0258 13.1145 49.7222 14.4561L48.0973 15.3813C46.9134 13.2071 44.1743 12.4207 42.0154 13.6234C41.6673 13.8084 41.3423 14.0397 41.0637 14.3173L35.5854 8.09539C36.1193 7.67905 36.5604 7.12394 36.8621 6.52257L41.6673 7.30898C42.0619 9.04371 43.7796 10.1308 45.5206 9.7376C47.2616 9.34439 48.3526 7.63279 47.958 5.89806C47.5634 4.16333 45.8456 3.07623 44.1046 3.46944C42.6422 3.79326 41.5976 5.08852 41.5976 6.59195L37.1407 5.8518C37.8371 3.49257 36.4907 0.994557 34.123 0.277535C31.7553 -0.416357 29.2483 0.925168 28.5287 3.2844C28.0412 4.94974 28.5519 6.75386 29.8286 7.88722L24.861 12.7213C24.095 11.8424 23.0039 11.2873 21.8433 11.1948V7.74844C23.6075 7.5634 24.9074 5.96745 24.6985 4.20959C24.4896 2.45173 22.9807 1.15647 21.2165 1.36463C19.4523 1.54967 18.1524 3.14562 18.3613 4.90348C18.5238 6.40692 19.7077 7.58653 21.2165 7.74844V11.1254C18.7559 11.3104 16.8989 13.4615 17.0846 15.9132C17.131 16.584 17.3399 17.2316 17.6649 17.8099L9.86533 21.3719C9.58678 20.7011 9.14573 20.1229 8.58861 19.6603L11.6295 14.2016C11.9081 14.271 12.1634 14.3173 12.442 14.3173C14.2294 14.3173 15.6918 12.8832 15.6918 11.1023C15.6918 9.32126 14.2526 7.86409 12.4652 7.86409C10.6778 7.86409 9.21537 9.29813 9.21537 11.0791C9.21537 12.2819 9.88855 13.3921 10.9563 13.9472L8.00829 19.2671C5.87268 18.018 3.11033 18.7119 1.85682 20.8399C0.603316 22.9678 1.29971 25.7203 3.43531 26.9693C4.54954 27.6169 5.87268 27.7557 7.07976 27.3856L10.6082 34.2089C9.72606 34.8565 9.0993 35.8279 8.89038 36.8919L6.33695 36.1518C6.40659 35.8973 6.4298 35.6198 6.4298 35.3654C6.4298 33.5844 4.99059 32.1503 3.20318 32.1503C1.41577 32.1503 -0.0234375 33.5844 -0.0234375 35.3654C-0.0234375 37.1463 1.41577 38.5804 3.20318 38.5804C4.43347 38.5804 5.5477 37.8865 6.0816 36.8225L8.79753 37.6089C8.79753 37.6783 8.79753 37.7477 8.79753 37.8171C8.79753 39.3437 9.56356 40.7546 10.8635 41.5641L9.12252 43.8308C7.77616 42.6512 5.73341 42.79 4.57275 44.1315C3.38889 45.4731 3.52816 47.5085 4.87452 48.665C6.22088 49.8446 8.26363 49.7058 9.42428 48.3643C10.4224 47.2309 10.4921 45.5656 9.60999 44.3397L11.4902 41.8879C12.0474 42.1424 12.6741 42.258 13.3009 42.258C13.3937 42.258 13.4866 42.258 13.5794 42.2349L14.9722 50.099C12.6045 50.7929 11.2349 53.2909 11.9313 55.6501C12.6277 58.0094 15.1347 59.374 17.5024 58.6801C18.4077 58.4026 19.2202 57.8706 19.8005 57.1073L26.3002 59.9985C26.2538 60.2298 26.2073 60.4843 26.2073 60.7155C26.2073 62.4965 27.6466 63.9537 29.434 63.9537C31.2214 63.9537 32.6838 62.5197 32.6838 60.7387C32.6838 58.9577 31.2446 57.5005 29.4572 57.5005C28.2037 57.5005 27.0662 58.2175 26.5323 59.3278L20.1952 56.5291C20.4737 56.0202 20.6594 55.4651 20.7058 54.8869L28.9697 52.8746C30.1536 55.0488 32.8695 55.8352 35.0515 54.6556C35.2837 54.5399 35.4926 54.4011 35.6783 54.2392L38.7656 56.8991C38.0228 58.5182 38.7192 60.438 40.3673 61.2013C41.9922 61.9414 43.9189 61.2475 44.685 59.6053C45.4278 57.9862 44.7314 56.0665 43.0833 55.3032C41.6905 54.6787 40.0656 55.0719 39.137 56.2746L36.2122 53.7535C36.6532 53.2909 36.9782 52.7127 37.1871 52.1113L49.4669 52.6895C49.4901 54.4705 50.9293 55.9046 52.7167 55.8814C54.5041 55.8583 55.9433 54.4243 55.9201 52.6433C55.8969 50.8854 54.4577 49.4514 52.6703 49.4514Z" fill="#0325D1"/>
</g>
<defs>
<clipPath id="clip0_9_51">
<rect width="400" height="64" fill="none"/>
</clipPath>
</defs>
</svg>
