<svg width="28" height="25" viewBox="0 0 28 25" fill="none" xmlns="http://www.w3.org/2000/svg">
<path d="M13.7779 9.94444C14.3652 9.94444 14.9467 9.82877 15.4893 9.60402C16.0319 9.37927 16.5249 9.04984 16.9402 8.63456C17.3555 8.21928 17.6849 7.72626 17.9097 7.18367C18.1344 6.64107 18.2501 6.05952 18.2501 5.47222C18.2501 4.88492 18.1344 4.30337 17.9097 3.76078C17.6849 3.21818 17.3555 2.72517 16.9402 2.30988C16.5249 1.8946 16.0319 1.56518 15.4893 1.34043C14.9467 1.11568 14.3652 1 13.7779 1C12.5918 1 11.4543 1.47118 10.6155 2.30988C9.77684 3.14859 9.30566 4.28611 9.30566 5.47222C9.30566 6.65833 9.77684 7.79586 10.6155 8.63456C11.4543 9.47326 12.5918 9.94444 13.7779 9.94444V9.94444Z" stroke="#7F8095" stroke-width="1.5" stroke-linecap="round" stroke-linejoin="round"/>
<path d="M6.11068 1.80078C5.49734 2.2267 5.00048 2.79949 4.66548 3.46684C4.33048 4.1342 4.16801 4.87485 4.19292 5.62116C4.21782 6.36746 4.42931 7.09563 4.80806 7.73917C5.18681 8.3827 5.72075 8.9211 6.36112 9.30517" stroke="#7F8095" stroke-width="1.5" stroke-linecap="round" stroke-linejoin="round"/>
<path d="M21.4443 1.80078C22.0364 2.21253 22.52 2.7615 22.8538 3.40079C23.1875 4.04007 23.3616 4.75066 23.361 5.47184C23.361 6.99111 22.6033 8.33406 21.4443 9.14161" stroke="#7F8095" stroke-width="1.5" stroke-linecap="round" stroke-linejoin="round"/>
<path d="M6.11108 22.7223V24.0001H21.4444V22.7223C21.4444 20.3406 21.4444 19.1497 21.0547 18.2118C20.5362 16.9595 19.5416 15.9644 18.2896 15.4454C17.3504 15.0557 16.1595 15.0557 13.7778 15.0557C11.396 15.0557 10.2051 15.0557 9.2672 15.4454C8.64689 15.702 8.0832 16.0782 7.60832 16.5527C7.13344 17.0271 6.75667 17.5904 6.49953 18.2105C6.11108 19.1497 6.11108 20.3406 6.11108 22.7223Z" stroke="#7F8095" stroke-width="1.5" stroke-linecap="round" stroke-linejoin="round"/>
<path d="M26.5556 23.9999V23.2333C26.5556 20.371 26.5556 18.9399 25.9984 17.8462C25.5087 16.884 24.7268 16.1017 23.7649 15.6113" stroke="#7F8095" stroke-width="1.5" stroke-linecap="round" stroke-linejoin="round"/>
<path d="M1 23.9999V23.2333C1 20.371 1 18.9399 1.55711 17.8462C2.04691 16.884 2.8288 16.1017 3.79067 15.6113" stroke="#7F8095" stroke-width="1.5" stroke-linecap="round" stroke-linejoin="round"/>
</svg>
