<svg viewBox="0 0 17 17" fill="none" xmlns="http://www.w3.org/2000/svg">
  <path d="M8.5 16.3281C9.58854 16.3281 10.612 16.1198 11.5703 15.7031C12.5339 15.2865 13.3828 14.7109 14.1172 13.9766C14.8516 13.2422 15.4271 12.3958 15.8438 11.4375C16.2604 10.474 16.4688 9.44792 16.4688 8.35938C16.4688 7.27083 16.2604 6.2474 15.8438 5.28906C15.4271 4.32552 14.8516 3.47656 14.1172 2.74219C13.3828 2.00781 12.5339 1.43229 11.5703 1.01562C10.6068 0.598958 9.58073 0.390625 8.49219 0.390625C7.40365 0.390625 6.3776 0.598958 5.41406 1.01562C4.45573 1.43229 3.60938 2.00781 2.875 2.74219C2.14583 3.47656 1.57292 4.32552 1.15625 5.28906C0.739583 6.2474 0.53125 7.27083 0.53125 8.35938C0.53125 9.44792 0.739583 10.474 1.15625 11.4375C1.57292 12.3958 2.14844 13.2422 2.88281 13.9766C3.61719 14.7109 4.46354 15.2865 5.42188 15.7031C6.38542 16.1198 7.41146 16.3281 8.5 16.3281ZM7.625 12.1719C7.48958 12.1719 7.36719 12.1432 7.25781 12.0859C7.14844 12.0286 7.04167 11.9323 6.9375 11.7969L4.97656 9.39062C4.91927 9.3125 4.8724 9.23177 4.83594 9.14844C4.80469 9.0599 4.78906 8.97135 4.78906 8.88281C4.78906 8.70573 4.84896 8.55469 4.96875 8.42969C5.08854 8.29948 5.23698 8.23438 5.41406 8.23438C5.52865 8.23438 5.63021 8.25781 5.71875 8.30469C5.8125 8.35156 5.90885 8.4401 6.00781 8.57031L7.59375 10.6172L10.9297 5.25781C11.0755 5.01823 11.263 4.89844 11.4922 4.89844C11.6589 4.89844 11.8099 4.95312 11.9453 5.0625C12.0807 5.16667 12.1484 5.3099 12.1484 5.49219C12.1484 5.58073 12.1276 5.66927 12.0859 5.75781C12.0443 5.84635 12 5.92969 11.9531 6.00781L8.28125 11.7969C8.19792 11.9219 8.10156 12.0156 7.99219 12.0781C7.88281 12.1406 7.76042 12.1719 7.625 12.1719Z" fill="#21DA11"/>
</svg>
