<svg width="27" height="27" viewBox="0 0 27 27" fill="none" xmlns="http://www.w3.org/2000/svg">
<path d="M3.43902 5.87805C4.08589 5.87805 4.70627 5.62108 5.16368 5.16368C5.62108 4.70627 5.87805 4.08589 5.87805 3.43902C5.87805 2.79215 5.62108 2.17178 5.16368 1.71437C4.70627 1.25697 4.08589 1 3.43902 1C2.79215 1 2.17178 1.25697 1.71437 1.71437C1.25697 2.17178 1 2.79215 1 3.43902C1 4.08589 1.25697 4.70627 1.71437 5.16368C2.17178 5.62108 2.79215 5.87805 3.43902 5.87805V5.87805Z" stroke="#7F8095" stroke-width="1.5" stroke-linecap="round" stroke-linejoin="round"/>
<path d="M4.65854 24.7809C5.62884 24.7809 6.5594 24.3955 7.24551 23.7094C7.93162 23.0233 8.31707 22.0927 8.31707 21.1224C8.31707 20.1521 7.93162 19.2215 7.24551 18.5354C6.5594 17.8493 5.62884 17.4639 4.65854 17.4639C3.68823 17.4639 2.75767 17.8493 2.07156 18.5354C1.38545 19.2215 1 20.1521 1 21.1224C1 22.0927 1.38545 23.0233 2.07156 23.7094C2.75767 24.3955 3.68823 24.7809 4.65854 24.7809V24.7809Z" stroke="#7F8095" stroke-width="1.5" stroke-linecap="round" stroke-linejoin="round"/>
<path d="M22.3412 25.9997C23.3115 25.9997 24.242 25.6142 24.9281 24.9281C25.6142 24.242 25.9997 23.3115 25.9997 22.3412C25.9997 21.3708 25.6142 20.4403 24.9281 19.7542C24.242 19.0681 23.3115 18.6826 22.3412 18.6826C21.3708 18.6826 20.4403 19.0681 19.7542 19.7542C19.0681 20.4403 18.6826 21.3708 18.6826 22.3412C18.6826 23.3115 19.0681 24.242 19.7542 24.9281C20.4403 25.6142 21.3708 25.9997 22.3412 25.9997Z" stroke="#7F8095" stroke-width="1.5" stroke-linecap="round" stroke-linejoin="round"/>
<path d="M12.2806 16.2438C13.6552 16.2438 14.9735 15.6977 15.9455 14.7257C16.9175 13.7538 17.4635 12.4355 17.4635 11.0609C17.4635 9.68626 16.9175 8.36796 15.9455 7.39597C14.9735 6.42399 13.6552 5.87793 12.2806 5.87793C10.906 5.87793 9.58769 6.42399 8.6157 7.39597C7.64371 8.36796 7.09766 9.68626 7.09766 11.0609C7.09766 12.4355 7.64371 13.7538 8.6157 14.7257C9.58769 15.6977 10.906 16.2438 12.2806 16.2438V16.2438Z" stroke="#7F8095" stroke-width="1.5" stroke-linecap="round" stroke-linejoin="round"/>
<path d="M19.9029 5.87805C20.5498 5.87805 21.1701 5.62108 21.6275 5.16368C22.0849 4.70627 22.3419 4.08589 22.3419 3.43902C22.3419 2.79215 22.0849 2.17178 21.6275 1.71437C21.1701 1.25697 20.5498 1 19.9029 1C19.256 1 18.6356 1.25697 18.1782 1.71437C17.7208 2.17178 17.4639 2.79215 17.4639 3.43902C17.4639 4.08589 17.7208 4.70627 18.1782 5.16368C18.6356 5.62108 19.256 5.87805 19.9029 5.87805V5.87805Z" stroke="#7F8095" stroke-width="1.5" stroke-linecap="round" stroke-linejoin="round"/>
<path d="M5.26855 5.26855L7.70758 7.70758" stroke="#7F8095" stroke-width="1.5" stroke-linecap="round" stroke-linejoin="round"/>
<path d="M17.4634 5.87793L16.2439 7.09744" stroke="#7F8095" stroke-width="1.5" stroke-linecap="round" stroke-linejoin="round"/>
<path d="M19.9024 19.2931L16.2439 14.415" stroke="#7F8095" stroke-width="1.5" stroke-linecap="round" stroke-linejoin="round"/>
<path d="M7.09766 18.0728L9.53668 15.6338" stroke="#7F8095" stroke-width="1.5" stroke-linecap="round" stroke-linejoin="round"/>
</svg>
