<svg width="204" height="69" viewBox="0 0 204 69" fill="none" xmlns="http://www.w3.org/2000/svg">
<path d="M78.1642 32.8003C77.6672 31.9654 76.9913 31.3094 76.1365 30.8124C75.2817 30.3353 74.3077 30.0967 73.2541 30.0967H57.987C55.86 30.0967 54.1305 31.8262 54.1305 33.9533V68.9999H59.6966V57.8876V54.866C59.6966 54.8461 59.6966 54.8063 59.6966 54.7864V54.7268C59.6966 53.8919 60.3526 53.1365 61.1875 53.1166C62.0622 53.0967 62.758 53.7925 62.758 54.6473V54.7864C62.758 56.4762 64.1296 57.8478 65.8193 57.8478H73.2342C73.433 57.8478 73.6318 57.8279 73.8107 57.8279H75.5799C77.4088 57.8279 78.8997 56.337 78.8997 54.5081C78.8997 54.4883 78.8997 54.4684 78.8997 54.4485V50.0354V50.0155V43.9723V43.6343V35.6629C78.9196 34.5894 78.6612 33.6352 78.1642 32.8003ZM73.3535 51.2082C73.3535 51.5263 73.2342 51.8046 72.9957 52.0233C72.777 52.2221 72.4987 52.3215 72.2204 52.3215H60.8297C60.5912 52.3215 60.2333 52.1823 60.0544 52.0233C59.8159 51.8046 59.6966 51.5263 59.6966 51.2082V36.796C59.6966 36.5574 59.8358 36.1996 59.9948 36.0207C60.2135 35.7821 60.4918 35.6629 60.8098 35.6629H72.2204C72.4589 35.6629 72.8168 35.7821 72.9957 35.961C73.2342 36.1797 73.3535 36.458 73.3535 36.7761V51.2082Z" fill="black"/>
<path d="M118.399 52.0233C118.161 51.8046 118.041 51.5263 118.041 51.2082V36.7761C118.041 36.458 118.161 36.1797 118.399 35.961C118.578 35.802 118.936 35.6629 119.175 35.6629H127.921V30.0967H125.675H124.204C122.494 30.0967 121.123 31.4883 121.123 33.178V33.2376C121.123 34.0725 120.467 34.8279 119.632 34.8478C118.757 34.8677 118.061 34.1719 118.061 33.3171V33.178C118.061 31.4883 116.69 30.1166 115 30.1166H114.105H113.847H112.455H108.301V35.6827H111.342C111.581 35.6827 111.939 35.802 112.117 35.9809C112.356 36.1996 112.475 36.4779 112.475 36.796V51.2082C112.475 51.4468 112.356 51.8046 112.177 51.9835C111.958 52.2221 111.68 52.3413 111.362 52.3413H111.283H111.223H110.309C108.659 52.401 107.327 53.7527 107.327 55.4226V55.4822C107.327 56.3171 106.671 57.0725 105.836 57.0924C104.961 57.1123 104.265 56.4165 104.265 55.5617V55.4226C104.265 53.7726 102.953 52.4209 101.303 52.3612H98.9178H94.9619H87.8651C87.5669 52.3612 87.3085 52.2618 87.0898 52.0431C86.8712 51.8245 86.7519 51.5661 86.7519 51.248V47.9083C86.7519 47.6101 86.8712 47.3517 87.0898 47.133C87.3085 46.9144 87.5669 46.7951 87.8651 46.7951H105.895V35.802C105.895 34.7087 105.657 33.7545 105.18 32.8798C104.703 32.025 104.027 31.3491 103.172 30.8521C102.317 30.3552 101.323 30.1166 100.23 30.1166H86.8513C85.7778 30.1166 84.8236 30.3552 83.9688 30.8521C83.1141 31.3491 82.4382 32.0051 81.9412 32.8798C81.4442 33.7346 81.1858 34.7087 81.1858 35.802V49.9757V49.9956V54.4684V54.528C81.1858 56.3569 82.6767 57.8478 84.5056 57.8478H86.2748C86.4537 57.8677 86.6525 57.8677 86.8513 57.8677H109.315H111.263H122.494V52.3016H119.175C118.896 52.3215 118.618 52.2221 118.399 52.0233ZM86.7718 36.7761C86.7718 36.4779 86.8911 36.1996 87.1097 35.9809C87.3284 35.7622 87.5868 35.6629 87.885 35.6629H99.2558C99.5739 35.6629 99.8522 35.7622 100.051 35.9809C100.25 36.1996 100.369 36.458 100.369 36.7761V40.1158C100.369 40.4139 100.27 40.6922 100.051 40.9109C99.8522 41.1296 99.5739 41.229 99.2558 41.229H87.885C87.5868 41.229 87.3284 41.1097 87.1097 40.891C86.8911 40.6724 86.7718 40.4139 86.7718 40.1158V36.7761Z" fill="black"/>
<path d="M60.8297 5.58595H69.5963H78.8997V0.0198364H78.6412C76.9317 0.0198364 75.56 1.41137 75.56 3.10108V3.16072C75.56 3.99564 74.904 4.75104 74.0691 4.77092C73.1944 4.7908 72.4986 4.09503 72.4986 3.24024V3.10108C72.4986 1.41137 71.127 0.0397166 69.4373 0.0397166H68.8409H68.2843H67.6879H66.3362H59.8357C58.7424 0.0397166 57.7882 0.278264 56.9135 0.775239C56.0587 1.27221 55.3828 1.92822 54.8858 2.8029C54.3889 3.65769 54.1503 4.63177 54.1503 5.72511V11.0726C54.1503 12.146 54.3889 13.1002 54.8858 13.955C55.3828 14.8098 56.0388 15.4857 56.9135 15.9827C57.7683 16.4796 58.7424 16.7182 59.8357 16.7182H72.1806C72.5185 16.7182 72.8565 16.8375 73.0751 17.0959C73.254 17.2947 73.3534 17.5531 73.3534 17.8314V21.1115C73.3534 21.4494 73.2342 21.7873 72.9757 22.006C72.7769 22.1849 72.5185 22.2843 72.2402 22.2843H63.2947H62.0025C60.2929 22.2843 58.9213 23.6758 58.9213 25.3656V25.4252C58.9213 26.2601 58.2653 27.0155 57.4304 27.0354C56.5557 27.0553 55.8599 26.3595 55.8599 25.5047V25.3656C55.8599 23.6758 54.4883 22.3042 52.7986 22.3042H52.8781C52.4407 22.2644 52.1028 22.006 51.8643 21.509V5.70523C51.8643 4.61189 51.6257 3.65769 51.1287 2.78302C50.6318 1.92822 49.9757 1.25234 49.1011 0.755362C48.2463 0.258387 47.2722 0.0198364 46.1789 0.0198364H27.0553V5.58595H36.3586H45.1054C45.4433 5.58595 45.7813 5.70523 45.9999 5.96366C46.1789 6.16245 46.2782 6.42087 46.2782 6.69918V9.97921C46.2782 10.3172 46.159 10.6551 45.9006 10.8738C45.7018 11.0527 45.4433 11.1521 45.165 11.1521H32.7009C31.6076 11.1521 30.6534 11.3906 29.7787 11.8876C28.9239 12.3846 28.248 13.0406 27.751 13.9153C27.2541 14.77 27.0155 15.7441 27.0155 16.7977V22.1452C27.0155 23.2385 27.2541 24.1927 27.751 25.0674C28.248 25.9222 28.904 26.5981 29.7787 27.095C30.6335 27.592 31.6076 27.8305 32.7009 27.8305H39.8772H40.1555C41.8651 27.8305 43.2368 26.439 43.2368 24.7493V24.6897C43.2368 23.8548 43.8928 23.0993 44.7277 23.0795C45.6024 23.0596 46.2981 23.7554 46.2981 24.6102V24.7493C46.2981 26.439 47.6698 27.8107 49.3595 27.8107H50.1944H50.4926H51.5462H56.1382H57.4105H73.1944C74.2878 27.8107 75.2419 27.5721 76.1166 27.0751C76.9714 26.5782 77.6473 25.9222 78.1443 25.0475C78.6412 24.1927 78.8798 23.2186 78.8798 22.1253V16.7778C78.8798 15.7044 78.6412 14.7502 78.1443 13.8954C77.6473 13.0406 76.9913 12.3647 76.1166 11.8677C75.2618 11.3707 74.2878 11.1322 73.1944 11.1322H60.8495C60.5116 11.1322 60.1737 11.0129 59.9351 10.7545C59.7562 10.5557 59.6568 10.2973 59.6568 10.019V6.73894C59.6568 6.40099 59.7761 6.06305 60.0345 5.82451C60.3128 5.68535 60.5514 5.58595 60.8297 5.58595ZM46.2782 21.1313C46.2782 21.4096 46.1789 21.6482 45.9999 21.8668C45.7813 22.1253 45.4433 22.2446 45.0855 22.2446H33.7545C33.4165 22.2446 33.0786 22.1253 32.8401 21.8668C32.6611 21.6681 32.5617 21.4096 32.5617 21.1313V17.8513C32.5617 17.5134 32.681 17.1754 32.9394 16.9369C33.1382 16.758 33.3967 16.6586 33.675 16.6586H45.0656C45.4036 16.6586 45.7415 16.7778 45.9602 17.0363C46.1391 17.235 46.2385 17.4935 46.2385 17.7718V21.1313H46.2782Z" fill="black"/>
<path d="M5.54624 21.1314V6.75886C5.54624 6.42092 5.66551 6.08297 5.92394 5.84442C6.12273 5.66551 6.38116 5.56612 6.65946 5.56612H15.446H24.7493V0H24.4909C22.7813 0 21.4097 1.39153 21.4097 3.08124V3.14088C21.4097 3.9758 20.7537 4.7312 19.9188 4.75108C19.0441 4.77096 18.3483 4.07519 18.3483 3.2204V3.08124C18.3483 1.39153 16.9767 0.0198772 15.2869 0.0198772H14.1538H12.7623H5.68539C4.59205 0.0198772 3.63785 0.258428 2.76318 0.755402C1.90838 1.25238 1.2325 1.90838 0.735525 2.78306C0.23855 3.63786 0 4.61193 0 5.70527V22.1452C0 23.2385 0.23855 24.1927 0.735525 25.0674C1.2325 25.9222 1.8885 26.5981 2.76318 27.0951C3.61798 27.592 4.59205 27.8306 5.68539 27.8306H24.7692V22.2645H6.73898C6.40104 22.2645 6.06309 22.1452 5.82454 21.8868C5.62575 21.6482 5.54624 21.4097 5.54624 21.1314Z" fill="black"/>
<path d="M136.64 43H146.02V41.56H138.42V36.52H143.9V35.08H138.42V30.46H146.02V29H136.64V43ZM146.608 43H148.508L151.508 38.78L154.488 43H156.488L152.528 37.56L156.308 32.38H154.428L151.568 36.38L148.728 32.38H146.748L150.528 37.58L146.608 43ZM157.18 46.66H158.9L158.88 40.92C159.24 41.6533 159.727 42.22 160.34 42.62C160.967 43.0067 161.673 43.2 162.46 43.2C163.753 43.2 164.82 42.7133 165.66 41.74C166.5 40.7533 166.92 39.4 166.92 37.68C166.92 35.96 166.5 34.62 165.66 33.66C164.833 32.6867 163.767 32.2 162.46 32.2C161.673 32.2 160.967 32.4 160.34 32.8C159.727 33.1867 159.24 33.7467 158.88 34.48V32.38H157.18V46.66ZM162.08 41.88C161.133 41.88 160.367 41.52 159.78 40.8C159.193 40.0667 158.9 39.0333 158.9 37.7C158.9 36.3533 159.193 35.32 159.78 34.6C160.367 33.88 161.133 33.52 162.08 33.52C163 33.52 163.747 33.88 164.32 34.6C164.907 35.32 165.2 36.3533 165.2 37.7C165.2 39.0467 164.907 40.08 164.32 40.8C163.747 41.52 163 41.88 162.08 41.88ZM168.164 43H169.864V29H168.164V43ZM175.955 43.24C176.368 43.24 176.755 43.2 177.115 43.12C177.488 43.04 177.835 42.92 178.155 42.76C178.488 42.6 178.788 42.4067 179.055 42.18C179.335 41.94 179.581 41.6667 179.795 41.36C180.021 41.0533 180.208 40.7133 180.355 40.34C180.501 39.9667 180.615 39.56 180.695 39.12C180.775 38.68 180.815 38.2067 180.815 37.7C180.815 37.1933 180.775 36.72 180.695 36.28C180.615 35.84 180.501 35.4333 180.355 35.06C180.208 34.6733 180.021 34.3267 179.795 34.02C179.581 33.7133 179.335 33.4467 179.055 33.22C178.788 32.98 178.488 32.78 178.155 32.62C177.835 32.46 177.488 32.34 177.115 32.26C176.755 32.18 176.368 32.14 175.955 32.14C175.555 32.14 175.168 32.18 174.795 32.26C174.421 32.34 174.075 32.46 173.755 32.62C173.435 32.78 173.135 32.98 172.855 33.22C172.588 33.4467 172.341 33.7133 172.115 34.02C171.901 34.3267 171.721 34.6733 171.575 35.06C171.428 35.4333 171.315 35.84 171.235 36.28C171.155 36.72 171.115 37.1933 171.115 37.7C171.115 39.4467 171.561 40.8067 172.455 41.78C173.361 42.7533 174.528 43.24 175.955 43.24ZM175.955 41.92C175.035 41.92 174.281 41.56 173.695 40.84C173.108 40.1067 172.815 39.0533 172.815 37.68C172.815 36.32 173.108 35.28 173.695 34.56C174.281 33.8267 175.035 33.46 175.955 33.46C176.875 33.46 177.628 33.8267 178.215 34.56C178.801 35.28 179.095 36.3267 179.095 37.7C179.095 39.06 178.801 40.1067 178.215 40.84C177.628 41.56 176.875 41.92 175.955 41.92ZM182.064 43H183.784V35.42C184.051 34.8867 184.438 34.4867 184.944 34.22C185.451 33.94 185.991 33.8 186.564 33.8C186.671 33.8 186.771 33.8067 186.864 33.82C186.971 33.8333 187.078 33.8467 187.184 33.86V32.26C187.131 32.2467 187.078 32.24 187.024 32.24C186.971 32.24 186.918 32.24 186.864 32.24C186.211 32.24 185.618 32.4 185.084 32.72C184.551 33.04 184.118 33.5067 183.784 34.12V32.38H182.064V43ZM192.256 43.24C193.456 43.24 194.456 42.8867 195.256 42.18C196.056 41.46 196.576 40.4533 196.816 39.16H195.176C194.976 40.0533 194.616 40.74 194.096 41.22C193.589 41.7 192.976 41.94 192.256 41.94C191.349 41.94 190.609 41.5867 190.036 40.88C189.476 40.1733 189.189 39.16 189.176 37.84H196.956V37.58C196.956 37.1533 196.923 36.7467 196.856 36.36C196.803 35.9733 196.716 35.6133 196.596 35.28C196.489 34.9333 196.349 34.62 196.176 34.34C196.016 34.06 195.829 33.8067 195.616 33.58C195.416 33.34 195.189 33.1333 194.936 32.96C194.683 32.7733 194.416 32.62 194.136 32.5C193.856 32.38 193.556 32.2933 193.236 32.24C192.929 32.1733 192.609 32.14 192.276 32.14C190.876 32.14 189.729 32.64 188.836 33.64C187.943 34.64 187.496 35.9933 187.496 37.7C187.496 39.4467 187.936 40.8067 188.816 41.78C189.709 42.7533 190.856 43.24 192.256 43.24ZM192.256 33.44C193.029 33.44 193.683 33.7133 194.216 34.26C194.749 34.8067 195.089 35.6 195.236 36.64H189.256C189.389 35.6267 189.729 34.84 190.276 34.28C190.823 33.72 191.483 33.44 192.256 33.44ZM198.172 43H199.892V35.42C200.159 34.8867 200.546 34.4867 201.052 34.22C201.559 33.94 202.099 33.8 202.672 33.8C202.779 33.8 202.879 33.8067 202.972 33.82C203.079 33.8333 203.186 33.8467 203.292 33.86V32.26C203.239 32.2467 203.186 32.24 203.132 32.24C203.079 32.24 203.026 32.24 202.972 32.24C202.319 32.24 201.726 32.4 201.192 32.72C200.659 33.04 200.226 33.5067 199.892 34.12V32.38H198.172V43Z" fill="black"/>
</svg>
