<svg width="204" height="69" viewBox="0 0 204 69" fill="none" xmlns="http://www.w3.org/2000/svg">
<path d="M78.1643 32.8002C77.6673 31.9653 76.9914 31.3093 76.1366 30.8123C75.2818 30.3352 74.3077 30.0967 73.2542 30.0967H57.9871C55.86 30.0967 54.1306 31.8262 54.1306 33.9532V68.9999H59.6967V57.8875V54.8659C59.6967 54.846 59.6967 54.8063 59.6967 54.7864V54.7268C59.6967 53.8918 60.3527 53.1364 61.1876 53.1166C62.0623 53.0967 62.758 53.7924 62.758 54.6472V54.7864C62.758 56.4761 64.1297 57.8478 65.8194 57.8478H73.2343C73.4331 57.8478 73.6318 57.8279 73.8108 57.8279H75.58C77.4089 57.8279 78.8998 56.3369 78.8998 54.5081C78.8998 54.4882 78.8998 54.4683 78.8998 54.4484V50.0353V50.0154V43.9722V43.6343V35.6628C78.9197 34.5893 78.6612 33.6351 78.1643 32.8002ZM73.3535 51.2082C73.3535 51.5262 73.2343 51.8045 72.9957 52.0232C72.7771 52.222 72.4987 52.3214 72.2204 52.3214H60.8298C60.5912 52.3214 60.2334 52.1822 60.0545 52.0232C59.8159 51.8045 59.6967 51.5262 59.6967 51.2082V36.7959C59.6967 36.5573 59.8358 36.1995 59.9949 36.0206C60.2135 35.7821 60.4918 35.6628 60.8099 35.6628H72.2204C72.459 35.6628 72.8168 35.7821 72.9957 35.961C73.2343 36.1797 73.3535 36.458 73.3535 36.776V51.2082Z" fill="white"/>
<path d="M118.399 52.0232C118.161 51.8045 118.041 51.5262 118.041 51.2082V36.776C118.041 36.458 118.161 36.1797 118.399 35.961C118.578 35.802 118.936 35.6628 119.175 35.6628H127.921V30.0967H125.675H124.204C122.494 30.0967 121.123 31.4882 121.123 33.1779V33.2376C121.123 34.0725 120.467 34.8279 119.632 34.8478C118.757 34.8676 118.061 34.1719 118.061 33.3171V33.1779C118.061 31.4882 116.69 30.1166 115 30.1166H114.105H113.847H112.456H108.301V35.6827H111.342C111.581 35.6827 111.939 35.8019 112.118 35.9809C112.356 36.1995 112.475 36.4778 112.475 36.7959V51.2082C112.475 51.4467 112.356 51.8045 112.177 51.9834C111.959 52.222 111.68 52.3413 111.362 52.3413H111.283H111.223H110.309C108.659 52.4009 107.327 53.7527 107.327 55.4225V55.4822C107.327 56.3171 106.671 57.0725 105.836 57.0924C104.961 57.1122 104.265 56.4165 104.265 55.5617V55.4225C104.265 53.7726 102.953 52.4208 101.303 52.3612H98.9179H94.962H87.8652C87.567 52.3612 87.3086 52.2618 87.0899 52.0431C86.8712 51.8244 86.752 51.566 86.752 51.2479V47.9083C86.752 47.6101 86.8712 47.3516 87.0899 47.133C87.3086 46.9143 87.567 46.795 87.8652 46.795H105.895V35.8019C105.895 34.7086 105.657 33.7544 105.18 32.8797C104.703 32.0249 104.027 31.3491 103.172 30.8521C102.317 30.3551 101.323 30.1166 100.23 30.1166H86.8514C85.7779 30.1166 84.8237 30.3551 83.9689 30.8521C83.1141 31.3491 82.4382 32.0051 81.9413 32.8797C81.4443 33.7345 81.1859 34.7086 81.1859 35.8019V49.9757V49.9955V54.4683V54.528C81.1859 56.3568 82.6768 57.8478 84.5056 57.8478H86.2749C86.4538 57.8676 86.6526 57.8676 86.8514 57.8676H109.315H111.263H122.494V52.3015H119.175C118.896 52.3214 118.618 52.222 118.399 52.0232ZM86.7718 36.776C86.7718 36.4778 86.8911 36.1995 87.1098 35.9809C87.3285 35.7622 87.5869 35.6628 87.8851 35.6628H99.2558C99.5739 35.6628 99.8522 35.7622 100.051 35.9809C100.25 36.1995 100.369 36.458 100.369 36.776V40.1157C100.369 40.4139 100.27 40.6922 100.051 40.9109C99.8522 41.1295 99.5739 41.2289 99.2558 41.2289H87.8851C87.5869 41.2289 87.3285 41.1096 87.1098 40.891C86.8911 40.6723 86.7718 40.4139 86.7718 40.1157V36.776Z" fill="white"/>
<path d="M60.8297 5.58614H69.5963H78.8997V0.0200195H78.6412C76.9317 0.0200195 75.56 1.41155 75.56 3.10126V3.1609C75.56 3.99582 74.904 4.75122 74.0691 4.7711C73.1944 4.79098 72.4986 4.09522 72.4986 3.24042V3.10126C72.4986 1.41155 71.127 0.0398997 69.4373 0.0398997H68.8409H68.2843H67.6879H66.3362H59.8357C58.7424 0.0398997 57.7882 0.278447 56.9135 0.775422C56.0587 1.2724 55.3828 1.9284 54.8858 2.80308C54.3889 3.65788 54.1503 4.63195 54.1503 5.72529V11.0727C54.1503 12.1462 54.3889 13.1004 54.8858 13.9552C55.3828 14.81 56.0388 15.4859 56.9135 15.9829C57.7683 16.4798 58.7424 16.7184 59.8357 16.7184H72.1806C72.5185 16.7184 72.8565 16.8376 73.0751 17.0961C73.254 17.2949 73.3534 17.5533 73.3534 17.8316V21.1116C73.3534 21.4496 73.2342 21.7875 72.9757 22.0062C72.7769 22.1851 72.5185 22.2845 72.2402 22.2845H63.2947H62.0025C60.2929 22.2845 58.9213 23.676 58.9213 25.3657V25.4254C58.9213 26.2603 58.2653 27.0157 57.4304 27.0356C56.5557 27.0555 55.8599 26.3597 55.8599 25.5049V25.3657C55.8599 23.676 54.4883 22.3044 52.7986 22.3044H52.8781C52.4407 22.2646 52.1028 22.0062 51.8643 21.5092V5.70541C51.8643 4.61207 51.6257 3.65788 51.1287 2.7832C50.6318 1.9284 49.9757 1.25252 49.1011 0.755545C48.2463 0.25857 47.2722 0.0200195 46.1789 0.0200195H27.0553V5.58614H36.3586H45.1054C45.4433 5.58614 45.7813 5.70541 45.9999 5.96384C46.1789 6.16263 46.2782 6.42106 46.2782 6.69936V9.9794C46.2782 10.3173 46.159 10.6553 45.9006 10.874C45.7018 11.0529 45.4433 11.1523 45.165 11.1523H32.7009C31.6076 11.1523 30.6534 11.3908 29.7787 11.8878C28.9239 12.3848 28.248 13.0408 27.751 13.9154C27.2541 14.7702 27.0155 15.7443 27.0155 16.7979V22.1453C27.0155 23.2387 27.2541 24.1929 27.751 25.0676C28.248 25.9223 28.904 26.5982 29.7787 27.0952C30.6335 27.5922 31.6076 27.8307 32.7009 27.8307H39.8772H40.1555C41.8651 27.8307 43.2368 26.4392 43.2368 24.7495V24.6899C43.2368 23.8549 43.8928 23.0995 44.7277 23.0797C45.6024 23.0598 46.2981 23.7555 46.2981 24.6103V24.7495C46.2981 26.4392 47.6698 27.8109 49.3595 27.8109H50.1944H50.4926H51.5462H56.1382H57.4105H73.1944C74.2878 27.8109 75.2419 27.5723 76.1166 27.0753C76.9714 26.5784 77.6473 25.9223 78.1443 25.0477C78.6412 24.1929 78.8798 23.2188 78.8798 22.1255V16.778C78.8798 15.7045 78.6412 14.7504 78.1443 13.8956C77.6473 13.0408 76.9913 12.3649 76.1166 11.8679C75.2618 11.3709 74.2878 11.1324 73.1944 11.1324H60.8495C60.5116 11.1324 60.1737 11.0131 59.9351 10.7547C59.7562 10.5559 59.6568 10.2975 59.6568 10.0192V6.73912C59.6568 6.40118 59.7761 6.06324 60.0345 5.82469C60.3128 5.68554 60.5514 5.58614 60.8297 5.58614ZM46.2782 21.1315C46.2782 21.4098 46.1789 21.6484 45.9999 21.867C45.7813 22.1255 45.4433 22.2447 45.0855 22.2447H33.7545C33.4165 22.2447 33.0786 22.1255 32.8401 21.867C32.6611 21.6682 32.5617 21.4098 32.5617 21.1315V17.8515C32.5617 17.5135 32.681 17.1756 32.9394 16.937C33.1382 16.7581 33.3967 16.6587 33.675 16.6587H45.0656C45.4036 16.6587 45.7415 16.778 45.9602 17.0364C46.1391 17.2352 46.2385 17.4937 46.2385 17.772V21.1315H46.2782Z" fill="white"/>
<path d="M5.54624 21.1314V6.75886C5.54624 6.42092 5.66551 6.08297 5.92394 5.84442C6.12273 5.66551 6.38116 5.56612 6.65946 5.56612H15.446H24.7493V0H24.4909C22.7813 0 21.4097 1.39153 21.4097 3.08124V3.14088C21.4097 3.9758 20.7537 4.7312 19.9188 4.75108C19.0441 4.77096 18.3483 4.07519 18.3483 3.2204V3.08124C18.3483 1.39153 16.9767 0.0198772 15.2869 0.0198772H14.1538H12.7623H5.68539C4.59205 0.0198772 3.63785 0.258428 2.76318 0.755402C1.90838 1.25238 1.2325 1.90838 0.735525 2.78306C0.23855 3.63786 0 4.61193 0 5.70527V22.1452C0 23.2385 0.23855 24.1927 0.735525 25.0674C1.2325 25.9222 1.8885 26.5981 2.76318 27.0951C3.61798 27.592 4.59205 27.8306 5.68539 27.8306H24.7692V22.2645H6.73898C6.40104 22.2645 6.06309 22.1452 5.82454 21.8868C5.62575 21.6482 5.54624 21.4097 5.54624 21.1314Z" fill="white"/>
<path d="M136.64 43H146.02V41.56H138.42V36.52H143.9V35.08H138.42V30.46H146.02V29H136.64V43ZM146.608 43H148.508L151.508 38.78L154.488 43H156.488L152.528 37.56L156.308 32.38H154.428L151.568 36.38L148.728 32.38H146.748L150.528 37.58L146.608 43ZM157.18 46.66H158.9L158.88 40.92C159.24 41.6533 159.727 42.22 160.34 42.62C160.967 43.0067 161.673 43.2 162.46 43.2C163.753 43.2 164.82 42.7133 165.66 41.74C166.5 40.7533 166.92 39.4 166.92 37.68C166.92 35.96 166.5 34.62 165.66 33.66C164.833 32.6867 163.767 32.2 162.46 32.2C161.673 32.2 160.967 32.4 160.34 32.8C159.727 33.1867 159.24 33.7467 158.88 34.48V32.38H157.18V46.66ZM162.08 41.88C161.133 41.88 160.367 41.52 159.78 40.8C159.193 40.0667 158.9 39.0333 158.9 37.7C158.9 36.3533 159.193 35.32 159.78 34.6C160.367 33.88 161.133 33.52 162.08 33.52C163 33.52 163.747 33.88 164.32 34.6C164.907 35.32 165.2 36.3533 165.2 37.7C165.2 39.0467 164.907 40.08 164.32 40.8C163.747 41.52 163 41.88 162.08 41.88ZM168.164 43H169.864V29H168.164V43ZM175.955 43.24C176.368 43.24 176.755 43.2 177.115 43.12C177.488 43.04 177.835 42.92 178.155 42.76C178.488 42.6 178.788 42.4067 179.055 42.18C179.335 41.94 179.581 41.6667 179.795 41.36C180.021 41.0533 180.208 40.7133 180.355 40.34C180.501 39.9667 180.615 39.56 180.695 39.12C180.775 38.68 180.815 38.2067 180.815 37.7C180.815 37.1933 180.775 36.72 180.695 36.28C180.615 35.84 180.501 35.4333 180.355 35.06C180.208 34.6733 180.021 34.3267 179.795 34.02C179.581 33.7133 179.335 33.4467 179.055 33.22C178.788 32.98 178.488 32.78 178.155 32.62C177.835 32.46 177.488 32.34 177.115 32.26C176.755 32.18 176.368 32.14 175.955 32.14C175.555 32.14 175.168 32.18 174.795 32.26C174.421 32.34 174.075 32.46 173.755 32.62C173.435 32.78 173.135 32.98 172.855 33.22C172.588 33.4467 172.341 33.7133 172.115 34.02C171.901 34.3267 171.721 34.6733 171.575 35.06C171.428 35.4333 171.315 35.84 171.235 36.28C171.155 36.72 171.115 37.1933 171.115 37.7C171.115 39.4467 171.561 40.8067 172.455 41.78C173.361 42.7533 174.528 43.24 175.955 43.24ZM175.955 41.92C175.035 41.92 174.281 41.56 173.695 40.84C173.108 40.1067 172.815 39.0533 172.815 37.68C172.815 36.32 173.108 35.28 173.695 34.56C174.281 33.8267 175.035 33.46 175.955 33.46C176.875 33.46 177.628 33.8267 178.215 34.56C178.801 35.28 179.095 36.3267 179.095 37.7C179.095 39.06 178.801 40.1067 178.215 40.84C177.628 41.56 176.875 41.92 175.955 41.92ZM182.064 43H183.784V35.42C184.051 34.8867 184.438 34.4867 184.944 34.22C185.451 33.94 185.991 33.8 186.564 33.8C186.671 33.8 186.771 33.8067 186.864 33.82C186.971 33.8333 187.078 33.8467 187.184 33.86V32.26C187.131 32.2467 187.078 32.24 187.024 32.24C186.971 32.24 186.918 32.24 186.864 32.24C186.211 32.24 185.618 32.4 185.084 32.72C184.551 33.04 184.118 33.5067 183.784 34.12V32.38H182.064V43ZM192.256 43.24C193.456 43.24 194.456 42.8867 195.256 42.18C196.056 41.46 196.576 40.4533 196.816 39.16H195.176C194.976 40.0533 194.616 40.74 194.096 41.22C193.589 41.7 192.976 41.94 192.256 41.94C191.349 41.94 190.609 41.5867 190.036 40.88C189.476 40.1733 189.189 39.16 189.176 37.84H196.956V37.58C196.956 37.1533 196.923 36.7467 196.856 36.36C196.803 35.9733 196.716 35.6133 196.596 35.28C196.489 34.9333 196.349 34.62 196.176 34.34C196.016 34.06 195.829 33.8067 195.616 33.58C195.416 33.34 195.189 33.1333 194.936 32.96C194.683 32.7733 194.416 32.62 194.136 32.5C193.856 32.38 193.556 32.2933 193.236 32.24C192.929 32.1733 192.609 32.14 192.276 32.14C190.876 32.14 189.729 32.64 188.836 33.64C187.943 34.64 187.496 35.9933 187.496 37.7C187.496 39.4467 187.936 40.8067 188.816 41.78C189.709 42.7533 190.856 43.24 192.256 43.24ZM192.256 33.44C193.029 33.44 193.683 33.7133 194.216 34.26C194.749 34.8067 195.089 35.6 195.236 36.64H189.256C189.389 35.6267 189.729 34.84 190.276 34.28C190.823 33.72 191.483 33.44 192.256 33.44ZM198.172 43H199.892V35.42C200.159 34.8867 200.546 34.4867 201.052 34.22C201.559 33.94 202.099 33.8 202.672 33.8C202.779 33.8 202.879 33.8067 202.972 33.82C203.079 33.8333 203.186 33.8467 203.292 33.86V32.26C203.239 32.2467 203.186 32.24 203.132 32.24C203.079 32.24 203.026 32.24 202.972 32.24C202.319 32.24 201.726 32.4 201.192 32.72C200.659 33.04 200.226 33.5067 199.892 34.12V32.38H198.172V43Z" fill="white"/>
</svg>
