<svg width="10" height="31" viewBox=" 20 -2 20 18" fill="none" xmlns="http://www.w3.org/2000/svg">
<path d="M2.088 10.368V7.024H7.176V5.408H2.088V2.208H7.512V0.575999H0.152V12H7.56V10.368H2.088ZM16.6001 12L13.3521 7.696L16.5041 3.728H14.4721L12.3921 6.432L10.2961 3.728H8.20013L11.3521 7.792L8.16813 12H10.2161L12.3121 9.072L14.5041 12H16.6001ZM22.0061 3.504C20.5821 3.504 19.6221 4.336 19.3181 5.232V3.728H17.3981V15.184H19.3021V10.496H19.3181C19.6541 11.488 20.5821 12.24 22.0061 12.24C24.1981 12.24 25.7661 10.416 25.7661 7.84C25.7661 5.28 24.1981 3.504 22.0061 3.504ZM21.5421 10.704C19.9261 10.704 19.1741 9.472 19.1741 7.84V7.664C19.2381 6.128 20.1181 5.024 21.5421 5.024C22.9981 5.024 23.8941 6.272 23.8941 7.84C23.8941 9.44 23.0301 10.704 21.5421 10.704ZM26.9859 0.575999V12H28.8419V0.575999H26.9859ZM34.3161 12.224C36.7641 12.224 38.5721 10.464 38.5721 7.872C38.5721 5.28 36.7641 3.504 34.3161 3.504C31.8681 3.504 30.0601 5.28 30.0601 7.872C30.0601 10.464 31.8681 12.224 34.3161 12.224ZM34.3161 10.72C32.9401 10.72 31.9161 9.536 31.9161 7.872C31.9161 6.192 32.9561 5.024 34.3161 5.024C35.6921 5.024 36.7161 6.192 36.7161 7.872C36.7161 9.536 35.6921 10.72 34.3161 10.72ZM44.0074 5.424V3.568C42.6954 3.632 41.8954 4.368 41.5754 5.488H41.5434V3.728H39.7194V12H41.5754V8.08C41.5754 6.448 42.4394 5.44 44.0074 5.424ZM52.3926 8.016C52.3766 5.68 51.2246 3.504 48.4086 3.504C45.9926 3.504 44.2326 5.328 44.2326 7.84C44.2326 10.448 45.9286 12.224 48.4086 12.224C50.3606 12.224 51.7846 11.232 52.2806 9.552H50.4406C50.1366 10.384 49.3526 10.736 48.4086 10.736C47.1126 10.736 46.1526 9.872 46.0246 8.368H52.3926V8.016ZM46.0566 7.024C46.2486 5.76 47.1126 4.944 48.3926 4.944C49.6726 4.944 50.4246 5.728 50.5526 7.024H46.0566ZM57.8361 5.424V3.568C56.5241 3.632 55.7241 4.368 55.4041 5.488H55.3721V3.728H53.5481V12H55.4041V8.08C55.4041 6.448 56.2681 5.44 57.8361 5.424Z" fill="url(#paint0_linear_614_1028)"/>
<defs>
<linearGradient id="paint0_linear_614_1028" x1="1.76451" y1="-9.05972" x2="73.5068" y2="11.9315" gradientUnits="userSpaceOnUse">
<stop stop-color="#1C1E90"/>
<stop offset="0.405285" stop-color="#693590"/>
<stop offset="0.585617" stop-color="#D81D54"/>
<stop offset="0.588542" stop-color="#D81E54"/>
<stop offset="0.973958" stop-color="#FD6B52"/>
</linearGradient>
</defs>
</svg>
