<svg width="33" height="37" viewBox="0 0 33 37" fill="none" xmlns="http://www.w3.org/2000/svg">
<path d="M31.0828 28.5973C30.1791 28.5973 29.4123 29.2138 29.2206 30.0715L22.0318 29.7364C22.0592 29.6024 22.0729 29.4684 22.0729 29.3344C22.0729 29.0932 22.0318 28.8519 21.9634 28.6107L24.5787 27.1366C25.2497 27.954 26.4683 28.0747 27.3036 27.418C28.1389 26.7613 28.2621 25.5686 27.5912 24.7511C26.9202 23.9336 25.7015 23.813 24.8663 24.4697C24.1542 25.0325 23.9488 25.9974 24.3596 26.8015L21.8128 28.2221C21.1829 26.9221 19.6082 26.3727 18.2937 26.9891C17.0613 27.552 16.4725 28.9458 16.9244 30.1921L12.2277 31.3178C12.2004 30.6879 11.9265 30.0983 11.4746 29.6426L12.3236 28.4901C13.3232 28.8251 14.4186 28.3025 14.7609 27.3242C15.1032 26.3459 14.5692 25.2738 13.5696 24.9387C12.5701 24.6037 11.4746 25.1264 11.1323 26.1047C10.8448 26.9355 11.1734 27.8468 11.9402 28.3159L11.1597 29.3746C10.612 28.9726 9.91364 28.7983 9.229 28.8921L8.42112 24.3759C9.84518 24.0676 10.7489 22.6873 10.434 21.2935C10.119 19.8998 8.70867 19.0153 7.28461 19.3235C7.05183 19.3771 6.83275 19.4576 6.61366 19.5648L4.57342 15.665C5.01159 15.4505 5.36761 15.1155 5.62777 14.7135L7.32569 15.1557C7.312 15.2495 7.2983 15.3299 7.2983 15.4237C7.2983 16.4556 8.14726 17.2999 9.20161 17.3133C10.256 17.3133 11.1186 16.4824 11.1323 15.4505C11.1323 14.4186 10.2834 13.5743 9.229 13.5609C8.43481 13.5609 7.70909 14.0434 7.43523 14.7671L5.83317 14.3516C6.05225 13.8424 6.09333 13.2795 5.9564 12.7434L10.6531 10.626C11.5568 11.7517 13.2273 11.926 14.3775 11.0415C15.4319 10.2106 15.692 8.73643 14.9526 7.62411L17.9651 4.74281C18.3348 4.97063 18.7592 5.11805 19.1837 5.14485V6.41798C18.1431 6.5252 17.3763 7.44989 17.4995 8.4684C17.6227 9.48691 18.5539 10.2374 19.5945 10.1168C20.6352 9.99616 21.402 9.08486 21.2787 8.06636C21.1829 7.19527 20.4845 6.51179 19.5945 6.41798V5.14485C19.9779 5.11805 20.3339 5.01084 20.6626 4.83662L23.9625 8.52201C23.0725 9.66113 23.2916 11.2827 24.4555 12.1538C25.6194 13.0249 27.2762 12.8105 28.1663 11.6713C28.714 10.9745 28.8646 10.0498 28.5497 9.21888L29.5766 8.65602C30.2476 9.4467 31.4525 9.54051 32.2604 8.88384C33.0683 8.22717 33.1642 7.04785 32.4932 6.25717C31.8222 5.46648 30.6173 5.37267 29.8094 6.02934C29.1248 6.5922 28.9331 7.5437 29.3438 8.32098L28.3853 8.85704C27.687 7.59731 26.0712 7.14166 24.7978 7.83853C24.5924 7.94574 24.4007 8.07976 24.2364 8.24058L21.0049 4.6356C21.3198 4.39437 21.58 4.07274 21.758 3.7243L24.5924 4.17995C24.8252 5.18505 25.8385 5.81492 26.8654 5.5871C27.8924 5.35927 28.536 4.36757 28.3032 3.36246C28.0704 2.35736 27.0571 1.72749 26.0302 1.95531C25.1675 2.14293 24.5513 2.89341 24.5513 3.7645L21.9223 3.33566C22.3331 1.96872 21.5389 0.521363 20.1422 0.10592C18.7456 -0.296123 17.2667 0.481159 16.8422 1.8481C16.5547 2.813 16.8559 3.85831 17.609 4.51498L14.6788 7.31588C14.2269 6.80662 13.5833 6.48499 12.8987 6.43139V4.43458C13.9393 4.32736 14.7062 3.40267 14.5829 2.38416C14.4597 1.36565 13.5696 0.615173 12.529 0.735786C11.4883 0.842997 10.7215 1.76769 10.8448 2.7862C10.9406 3.65729 11.6389 4.34077 12.529 4.43458V6.39118C11.0775 6.49839 9.98211 7.74472 10.0917 9.16527C10.119 9.55391 10.2423 9.92915 10.434 10.2642L5.83317 12.328C5.66885 11.9394 5.40869 11.6043 5.08006 11.3363L6.87382 8.17357C7.03814 8.21377 7.18876 8.24058 7.35308 8.24058C8.40743 8.24058 9.27008 7.40969 9.27008 6.37778C9.27008 5.34587 8.42112 4.50158 7.36677 4.50158C6.31242 4.50158 5.44977 5.33247 5.44977 6.36438C5.44977 7.06125 5.84686 7.70452 6.47673 8.02615L4.73774 11.1085C3.47799 10.3848 1.84854 10.7868 1.10912 12.0198C0.369708 13.2527 0.780494 14.8475 2.04024 15.5711C2.6975 15.9464 3.47799 16.0268 4.19002 15.8124L6.27134 19.7658C5.75101 20.141 5.3813 20.7039 5.25806 21.3204L3.75185 20.8915C3.79293 20.7441 3.80662 20.5833 3.80662 20.4359C3.80662 19.4039 2.95766 18.5731 1.90331 18.5731C0.848959 18.5731 0 19.4039 0 20.4359C0 21.4678 0.848959 22.2987 1.90331 22.2987C2.62903 22.2987 3.28629 21.8966 3.60123 21.2801L5.20329 21.7358C5.20329 21.776 5.20329 21.8162 5.20329 21.8564C5.20329 22.7409 5.65516 23.5584 6.42196 24.0274L5.39499 25.3408C4.60081 24.6573 3.39583 24.7377 2.71119 25.515C2.01285 26.2923 2.09501 27.4716 2.8892 28.1417C3.68338 28.8251 4.88836 28.7447 5.573 27.9675C6.16179 27.3108 6.20287 26.3459 5.68254 25.6356L6.79167 24.2151C7.1203 24.3625 7.49 24.4295 7.85971 24.4295C7.91448 24.4295 7.96925 24.4295 8.02403 24.4161L8.8456 28.9726C7.44893 29.3746 6.64105 30.822 7.05183 32.1889C7.46262 33.5558 8.94145 34.3465 10.3381 33.9445C10.8721 33.7837 11.3514 33.4754 11.6937 33.0332L15.5277 34.7084C15.5003 34.8424 15.473 34.9898 15.473 35.1238C15.473 36.1557 16.3219 37 17.3763 37C18.4306 37 19.2933 36.1691 19.2933 35.1372C19.2933 34.1053 18.4443 33.261 17.39 33.261C16.6505 33.261 15.9796 33.6765 15.6647 34.3197L11.9265 32.6981C12.0908 32.4033 12.2004 32.0817 12.2277 31.7466L17.1024 30.5807C17.8007 31.8405 19.4028 32.2961 20.6899 31.6126C20.8269 31.5456 20.9501 31.4652 21.0596 31.3714L22.8808 32.9126C22.4426 33.8507 22.8534 34.963 23.8256 35.4052C24.7841 35.8341 25.9206 35.432 26.3725 34.4805C26.8107 33.5424 26.3999 32.4301 25.4277 31.9879C24.6061 31.626 23.6476 31.8539 23.0999 32.5507L21.3746 31.09C21.6347 30.822 21.8264 30.4869 21.9497 30.1385L29.1932 30.4735C29.2069 31.5054 30.0559 32.3363 31.1102 32.3229C32.1646 32.3095 33.0135 31.4786 32.9998 30.4467C32.9861 29.4282 32.1372 28.5973 31.0828 28.5973Z" fill="white"/>
</svg>
