<svg width="23" height="23" viewBox="0 0 23 23" fill="none" xmlns="http://www.w3.org/2000/svg">
<path d="M21.5944 23L13.1931 14.5986C12.5542 15.1523 11.8088 15.5836 10.9569 15.8924C10.1051 16.2012 9.2 16.3556 8.24167 16.3556C5.94167 16.3556 3.99306 15.5569 2.39583 13.9597C0.798611 12.3625 0 10.4352 0 8.17778C0 5.92037 0.798611 3.99306 2.39583 2.39583C3.99306 0.798611 5.93102 0 8.20972 0C10.4671 0 12.3891 0.798611 13.9757 2.39583C15.5623 3.99306 16.3556 5.92037 16.3556 8.17778C16.3556 9.09352 16.2065 9.97731 15.9083 10.8292C15.6102 11.681 15.163 12.4796 14.5667 13.225L23 21.5944L21.5944 23ZM8.20972 14.4389C9.93472 14.4389 11.4042 13.8266 12.6181 12.6021C13.8319 11.3775 14.4389 9.90278 14.4389 8.17778C14.4389 6.45278 13.8319 4.97801 12.6181 3.75347C11.4042 2.52893 9.93472 1.91667 8.20972 1.91667C6.46343 1.91667 4.97801 2.52893 3.75347 3.75347C2.52893 4.97801 1.91667 6.45278 1.91667 8.17778C1.91667 9.90278 2.52893 11.3775 3.75347 12.6021C4.97801 13.8266 6.46343 14.4389 8.20972 14.4389Z" fill="white"/>
</svg>
