<svg width="28" height="28" viewBox="0 0 28 28" fill="none" xmlns="http://www.w3.org/2000/svg">
<path d="M26.2889 28L16.0611 17.7722C15.2833 18.4463 14.3759 18.9713 13.3389 19.3472C12.3019 19.7231 11.2 19.9111 10.0333 19.9111C7.23333 19.9111 4.86111 18.9389 2.91667 16.9944C0.972222 15.05 0 12.7037 0 9.95555C0 7.20741 0.972222 4.86111 2.91667 2.91667C4.86111 0.972222 7.22037 0 9.99444 0C12.7426 0 15.0824 0.972222 17.0139 2.91667C18.9454 4.86111 19.9111 7.20741 19.9111 9.95555C19.9111 11.0704 19.7296 12.1463 19.3667 13.1833C19.0037 14.2204 18.4593 15.1926 17.7333 16.1L28 26.2889L26.2889 28ZM9.99444 17.5778C12.0944 17.5778 13.8833 16.8324 15.3611 15.3417C16.8389 13.8509 17.5778 12.0556 17.5778 9.95555C17.5778 7.85556 16.8389 6.06018 15.3611 4.56944C13.8833 3.0787 12.0944 2.33333 9.99444 2.33333C7.86852 2.33333 6.06018 3.0787 4.56944 4.56944C3.0787 6.06018 2.33333 7.85556 2.33333 9.95555C2.33333 12.0556 3.0787 13.8509 4.56944 15.3417C6.06018 16.8324 7.86852 17.5778 9.99444 17.5778Z" fill="white"/>
</svg>
