<svg width="24" height="25" viewBox="0 0 24 25" fill="none" xmlns="http://www.w3.org/2000/svg">
<path d="M18.5078 16.582C16.3594 16.582 14.5 16.1719 12.9297 15.3516C11.3672 14.5312 10.1602 13.3633 9.30859 11.8477C8.46484 10.332 8.04297 8.53125 8.04297 6.44531C8.04297 5.55469 8.10938 4.73828 8.24219 3.99609C8.375 3.25391 8.55078 2.67188 8.76953 2.25C8.85547 2.07812 8.91016 1.94141 8.93359 1.83984C8.96484 1.73828 8.98047 1.62891 8.98047 1.51172C8.98047 1.31641 8.89844 1.12891 8.73438 0.949219C8.57812 0.761719 8.375 0.667969 8.125 0.667969C8.07812 0.667969 8 0.679688 7.89062 0.703125C7.78125 0.71875 7.64453 0.761719 7.48047 0.832031C6.03516 1.41797 4.75781 2.28125 3.64844 3.42188C2.53906 4.5625 1.66797 5.88281 1.03516 7.38281C0.410156 8.875 0.0976562 10.4414 0.0976562 12.082C0.0976562 13.8633 0.398438 15.5039 1 17.0039C1.60938 18.4961 2.46484 19.793 3.56641 20.8945C4.66797 21.9961 5.96484 22.8516 7.45703 23.4609C8.95703 24.0703 10.5977 24.375 12.3789 24.375C14.0742 24.375 15.6484 24.0898 17.1016 23.5195C18.5547 22.957 19.8281 22.1484 20.9219 21.0938C22.0156 20.0391 22.8789 18.7812 23.5117 17.3203C23.582 17.1641 23.625 17.0273 23.6406 16.9102C23.6641 16.7852 23.6758 16.6914 23.6758 16.6289C23.6758 16.3867 23.5898 16.1914 23.418 16.043C23.2539 15.8945 23.082 15.8203 22.9023 15.8203C22.8086 15.8203 22.7188 15.8281 22.6328 15.8438C22.5469 15.8594 22.4336 15.8906 22.293 15.9375C21.9727 16.0703 21.6055 16.1836 21.1914 16.2773C20.7852 16.3711 20.3516 16.4453 19.8906 16.5C19.4375 16.5547 18.9766 16.582 18.5078 16.582ZM1.9375 12C1.9375 10.7891 2.13672 9.61328 2.53516 8.47266C2.94141 7.33203 3.51172 6.28906 4.24609 5.34375C4.98828 4.39844 5.86328 3.60938 6.87109 2.97656C6.68359 3.51562 6.53906 4.08984 6.4375 4.69922C6.34375 5.30078 6.29688 5.9375 6.29688 6.60938C6.29688 9.04688 6.76953 11.1406 7.71484 12.8906C8.66797 14.6328 10.0352 15.9688 11.8164 16.8984C13.6055 17.8281 15.7461 18.293 18.2383 18.293C18.8398 18.293 19.4023 18.2578 19.9258 18.1875C20.4492 18.1094 20.9531 17.9844 21.4375 17.8125C20.8438 18.7891 20.082 19.6328 19.1523 20.3438C18.2305 21.0547 17.1953 21.5977 16.0469 21.9727C14.9062 22.3555 13.707 22.5469 12.4492 22.5469C10.9336 22.5469 9.53516 22.2852 8.25391 21.7617C6.97266 21.2461 5.85938 20.5156 4.91406 19.5703C3.96875 18.625 3.23438 17.5117 2.71094 16.2305C2.19531 14.9414 1.9375 13.5312 1.9375 12Z" fill="#DCDCDC"/>
</svg>
