<svg width="42" height="42" viewBox="0 0 42 42" fill="none" xmlns="http://www.w3.org/2000/svg">
<path d="M35 30L40 35L35 40" fill="white"/>
<path d="M35 30L40 35L35 40" stroke="black" stroke-width="2.875" stroke-linecap="round" stroke-linejoin="round"/>
<path d="M5.5 9C6.42826 9 7.3185 8.63125 7.97487 7.97487C8.63125 7.3185 9 6.42826 9 5.5C9 4.57174 8.63125 3.6815 7.97487 3.02513C7.3185 2.36875 6.42826 2 5.5 2C4.57174 2 3.6815 2.36875 3.02513 3.02513C2.36875 3.6815 2 4.57174 2 5.5C2 6.42826 2.36875 7.3185 3.02513 7.97487C3.6815 8.63125 4.57174 9 5.5 9Z" fill="white" stroke="black" stroke-width="3" stroke-linecap="round" stroke-linejoin="round"/>
<path d="M9 6H16.75C17.7777 6 18.7633 6.39424 19.49 7.09599C20.2167 7.79774 20.625 8.74951 20.625 9.74194V31.2581C20.625 32.2505 21.0333 33.2023 21.76 33.904C22.4867 34.6058 23.4723 35 24.5 35H40" fill="white"/>
<path d="M9 6H16.75C17.7777 6 18.7633 6.39424 19.49 7.09599C20.2167 7.79774 20.625 8.74951 20.625 9.74194V31.2581C20.625 32.2505 21.0333 33.2023 21.76 33.904C22.4867 34.6058 23.4723 35 24.5 35H40" stroke="black" stroke-width="3" stroke-linecap="round" stroke-linejoin="round"/>
</svg>
