<svg width="27" height="26" viewBox="0 0 27 26" fill="none" xmlns="http://www.w3.org/2000/svg">
<path d="M23.1426 18.7144L25.9997 21.8572L23.1426 25.0001" stroke="#7F8095" stroke-width="1.5" stroke-linecap="round" stroke-linejoin="round"/>
<path d="M3.28571 5.57143C3.89192 5.57143 4.4733 5.33061 4.90196 4.90196C5.33061 4.4733 5.57143 3.89192 5.57143 3.28571C5.57143 2.67951 5.33061 2.09812 4.90196 1.66947C4.4733 1.24082 3.89192 1 3.28571 1C2.67951 1 2.09812 1.24082 1.66947 1.66947C1.24082 2.09812 1 2.67951 1 3.28571C1 3.89192 1.24082 4.4733 1.66947 4.90196C2.09812 5.33061 2.67951 5.57143 3.28571 5.57143V5.57143Z" stroke="#7F8095" stroke-width="1.5" stroke-linecap="round" stroke-linejoin="round"/>
<path d="M5.57153 3.28564H10.4287C11.0728 3.28564 11.6905 3.542 12.1459 3.99831C12.6014 4.45462 12.8572 5.0735 12.8572 5.71882V19.7096C12.8572 20.3549 13.1131 20.9738 13.5686 21.4301C14.024 21.8864 14.6417 22.1428 15.2858 22.1428H25.0001" stroke="#7F8095" stroke-width="1.5" stroke-linecap="round" stroke-linejoin="round"/>
</svg>
