<svg width="12" height="7" viewBox="0 0 12 7" fill="none" xmlns="http://www.w3.org/2000/svg">
<path d="M6 6.70801C6.08659 6.70801 6.16862 6.69206 6.24609 6.66016C6.32812 6.6237 6.39876 6.57357 6.45801 6.50977L11.749 1.08887C11.8721 0.96582 11.9336 0.819987 11.9336 0.651367C11.9336 0.532878 11.9062 0.425781 11.8516 0.330078C11.7969 0.234375 11.7217 0.15918 11.626 0.104492C11.5348 0.0498047 11.43 0.0224609 11.3115 0.0224609C11.1429 0.0224609 10.9948 0.0817057 10.8672 0.200195L5.63086 5.55273H6.3623L1.12598 0.200195C1.00293 0.0817057 0.854818 0.0224609 0.681641 0.0224609C0.563151 0.0224609 0.456055 0.0498047 0.360352 0.104492C0.269206 0.15918 0.196289 0.234375 0.141602 0.330078C0.0869141 0.425781 0.0595703 0.532878 0.0595703 0.651367C0.0595703 0.737956 0.0755208 0.819987 0.107422 0.897461C0.139323 0.970378 0.184896 1.03646 0.244141 1.0957L5.53516 6.50977C5.67188 6.64193 5.82682 6.70801 6 6.70801Z" fill="#F4F4F4"/>
</svg>
