<svg width="11" height="18" viewBox="0 0 11 18" fill="none" xmlns="http://www.w3.org/2000/svg">
<path d="M0.484375 8.94922C0.484375 9.07292 0.507161 9.1901 0.552734 9.30078C0.598307 9.40495 0.666667 9.5026 0.757812 9.59375L8.50195 17.1621C8.67773 17.3379 8.88932 17.4258 9.13672 17.4258C9.30599 17.4258 9.45573 17.3867 9.58594 17.3086C9.72266 17.2305 9.83008 17.123 9.9082 16.9863C9.99284 16.8561 10.0352 16.7064 10.0352 16.5371C10.0352 16.2962 9.94727 16.0846 9.77148 15.9023L2.66211 8.94922L9.77148 1.99609C9.94727 1.8138 10.0352 1.60221 10.0352 1.36133C10.0352 1.19206 9.99284 1.04232 9.9082 0.912109C9.83008 0.775391 9.72266 0.667969 9.58594 0.589844C9.45573 0.511719 9.30599 0.472656 9.13672 0.472656C8.88932 0.472656 8.67773 0.557292 8.50195 0.726562L0.757812 8.30469C0.666667 8.39583 0.598307 8.49674 0.552734 8.60742C0.507161 8.71159 0.484375 8.82552 0.484375 8.94922Z" fill="#F4F4F4"/>
</svg>
