<svg width="26" height="27" viewBox="0 0 26 27" fill="none" xmlns="http://www.w3.org/2000/svg">
<path d="M12.7773 19.5156C13.5898 19.5156 14.3555 19.3594 15.0742 19.0469C15.8008 18.7344 16.4375 18.3047 16.9844 17.7578C17.5312 17.2031 17.9609 16.5664 18.2734 15.8477C18.5859 15.1289 18.7422 14.3594 18.7422 13.5391C18.7422 12.7188 18.5859 11.9492 18.2734 11.2305C17.9609 10.5039 17.5312 9.86719 16.9844 9.32031C16.4375 8.76562 15.8008 8.33203 15.0742 8.01953C14.3555 7.70703 13.5898 7.55078 12.7773 7.55078C11.957 7.55078 11.1875 7.70703 10.4688 8.01953C9.75 8.33203 9.11328 8.76562 8.55859 9.32031C8.01172 9.86719 7.58203 10.5039 7.26953 11.2305C6.95703 11.9492 6.80078 12.7188 6.80078 13.5391C6.80078 14.3594 6.95703 15.1289 7.26953 15.8477C7.58203 16.5664 8.01172 17.2031 8.55859 17.7578C9.11328 18.3047 9.75 18.7344 10.4688 19.0469C11.1875 19.3594 11.957 19.5156 12.7773 19.5156ZM12.7773 17.7227C12.0117 17.7227 11.3125 17.5352 10.6797 17.1602C10.0469 16.7773 9.53906 16.2695 9.15625 15.6367C8.77344 15.0039 8.58203 14.3047 8.58203 13.5391C8.58203 12.7734 8.77344 12.0742 9.15625 11.4414C9.53906 10.8086 10.0469 10.3008 10.6797 9.91797C11.3125 9.53516 12.0117 9.34375 12.7773 9.34375C13.543 9.34375 14.2422 9.53516 14.875 9.91797C15.5078 10.3008 16.0117 10.8086 16.3867 11.4414C16.7695 12.0742 16.9609 12.7734 16.9609 13.5391C16.9609 14.3047 16.7695 15.0039 16.3867 15.6367C16.0117 16.2695 15.5078 16.7773 14.875 17.1602C14.2422 17.5352 13.543 17.7227 12.7773 17.7227ZM13.8086 1.84375C13.8086 1.5625 13.707 1.32031 13.5039 1.11719C13.3008 0.914063 13.0586 0.8125 12.7773 0.8125C12.5039 0.8125 12.2656 0.914063 12.0625 1.11719C11.8594 1.32031 11.7578 1.5625 11.7578 1.84375V4.30469C11.7578 4.57812 11.8594 4.81641 12.0625 5.01953C12.2656 5.22266 12.5039 5.32422 12.7773 5.32422C13.0586 5.32422 13.3008 5.22266 13.5039 5.01953C13.707 4.81641 13.8086 4.57812 13.8086 4.30469V1.84375ZM18.5664 6.30859C18.3711 6.50391 18.2734 6.74609 18.2734 7.03516C18.2734 7.31641 18.3711 7.55469 18.5664 7.75C18.7617 7.94531 19 8.04688 19.2812 8.05469C19.5703 8.05469 19.8164 7.95312 20.0195 7.75L21.7656 6.00391C21.9609 5.80859 22.0586 5.56641 22.0586 5.27734C22.0586 4.98828 21.9609 4.74609 21.7656 4.55078C21.5703 4.35547 21.332 4.25781 21.0508 4.25781C20.7695 4.25781 20.5312 4.35547 20.3359 4.55078L18.5664 6.30859ZM24.4375 14.5586C24.7188 14.5586 24.9609 14.457 25.1641 14.2539C25.3672 14.0508 25.4688 13.8125 25.4688 13.5391C25.4688 13.2578 25.3672 13.0195 25.1641 12.8242C24.9609 12.6211 24.7188 12.5195 24.4375 12.5195H21.9883C21.7148 12.5195 21.4766 12.6211 21.2734 12.8242C21.0703 13.0195 20.9688 13.2578 20.9688 13.5391C20.9688 13.8125 21.0703 14.0508 21.2734 14.2539C21.4766 14.457 21.7148 14.5586 21.9883 14.5586H24.4375ZM20.0078 19.3398C19.8125 19.1445 19.5703 19.0469 19.2812 19.0469C19 19.0469 18.7617 19.1445 18.5664 19.3398C18.3711 19.5352 18.2734 19.7734 18.2734 20.0547C18.2734 20.3359 18.3711 20.5781 18.5664 20.7812L20.3359 22.5391C20.5312 22.7344 20.7695 22.8281 21.0508 22.8203C21.332 22.8203 21.5703 22.7227 21.7656 22.5273C21.9609 22.332 22.0586 22.0938 22.0586 21.8125C22.0586 21.5234 21.9609 21.2812 21.7656 21.0859L20.0078 19.3398ZM13.8086 22.7734C13.8086 22.4922 13.707 22.25 13.5039 22.0469C13.3008 21.8438 13.0586 21.7422 12.7773 21.7422C12.5039 21.7422 12.2656 21.8438 12.0625 22.0469C11.8594 22.25 11.7578 22.4922 11.7578 22.7734V25.2344C11.7578 25.5078 11.8594 25.7461 12.0625 25.9492C12.2656 26.1523 12.5039 26.2539 12.7773 26.2539C13.0586 26.2539 13.3008 26.1523 13.5039 25.9492C13.707 25.7461 13.8086 25.5078 13.8086 25.2344V22.7734ZM3.78906 21.0742C3.59375 21.2695 3.49609 21.5117 3.49609 21.8008C3.49609 22.082 3.58984 22.3203 3.77734 22.5156C3.97266 22.7109 4.21484 22.8086 4.50391 22.8086C4.79297 22.8164 5.03516 22.7227 5.23047 22.5273L6.97656 20.7812C7.17188 20.5859 7.26953 20.3477 7.26953 20.0664C7.27734 19.7773 7.18359 19.5352 6.98828 19.3398C6.79297 19.1445 6.55078 19.0469 6.26172 19.0469C5.97266 19.0469 5.73047 19.1445 5.53516 19.3398L3.78906 21.0742ZM1.11719 12.5195C0.84375 12.5195 0.605469 12.6211 0.402344 12.8242C0.199219 13.0195 0.0976562 13.2578 0.0976562 13.5391C0.0976562 13.8125 0.199219 14.0508 0.402344 14.2539C0.605469 14.457 0.84375 14.5586 1.11719 14.5586H3.56641C3.84766 14.5586 4.08984 14.457 4.29297 14.2539C4.49609 14.0508 4.59766 13.8125 4.59766 13.5391C4.59766 13.2578 4.49609 13.0195 4.29297 12.8242C4.08984 12.6211 3.84766 12.5195 3.56641 12.5195H1.11719ZM5.53516 7.75C5.73047 7.94531 5.96875 8.04297 6.25 8.04297C6.53906 8.04297 6.78125 7.94531 6.97656 7.75C7.17188 7.5625 7.26953 7.32422 7.26953 7.03516C7.27734 6.73828 7.18359 6.49609 6.98828 6.30859L5.24219 4.55078C5.05469 4.36328 4.81641 4.26953 4.52734 4.26953C4.24609 4.26172 4.00391 4.35547 3.80078 4.55078C3.60547 4.74609 3.50781 4.98828 3.50781 5.27734C3.50781 5.55859 3.60156 5.79687 3.78906 5.99219L5.53516 7.75Z" fill="#7A7A7A"/>
</svg>
