<svg width="44" height="40" viewBox="0 0 44 40" fill="none" xmlns="http://www.w3.org/2000/svg">
<path d="M22 16C22.9193 16 23.8295 15.8189 24.6788 15.4672C25.5281 15.1154 26.2997 14.5998 26.9497 13.9497C27.5998 13.2997 28.1154 12.5281 28.4672 11.6788C28.8189 10.8295 29 9.91925 29 9C29 8.08075 28.8189 7.17049 28.4672 6.32122C28.1154 5.47194 27.5998 4.70026 26.9497 4.05025C26.2997 3.40024 25.5281 2.88463 24.6788 2.53284C23.8295 2.18106 22.9193 2 22 2C20.1435 2 18.363 2.7375 17.0503 4.05025C15.7375 5.36301 15 7.14348 15 9C15 10.8565 15.7375 12.637 17.0503 13.9497C18.363 15.2625 20.1435 16 22 16V16Z" stroke="white" stroke-width="3" stroke-linecap="round" stroke-linejoin="round"/>
<path d="M9.99975 3.25391C9.03974 3.92056 8.26204 4.8171 7.73769 5.86166C7.21334 6.90621 6.95905 8.0655 6.99803 9.23362C7.03702 10.4018 7.36804 11.5415 7.96086 12.5488C8.55369 13.556 9.38943 14.3987 10.3917 14.9999" stroke="white" stroke-width="3" stroke-linecap="round" stroke-linejoin="round"/>
<path d="M34 3.25391C34.9267 3.89838 35.6837 4.75764 36.2061 5.75826C36.7285 6.75888 37.0009 7.87111 37 8.99991C37 11.3779 35.814 13.4799 34 14.7439" stroke="white" stroke-width="3" stroke-linecap="round" stroke-linejoin="round"/>
<path d="M10 36V38H34V36C34 32.272 34 30.408 33.39 28.94C32.5785 26.9799 31.0217 25.4224 29.062 24.61C27.592 24 25.728 24 22 24C18.272 24 16.408 24 14.94 24.61C13.9691 25.0116 13.0868 25.6005 12.3435 26.3431C11.6002 27.0857 11.0105 27.9675 10.608 28.938C10 30.408 10 32.272 10 36Z" stroke="white" stroke-width="3" stroke-linecap="round" stroke-linejoin="round"/>
<path d="M41.9998 38.0001V36.8001C41.9998 32.3201 41.9998 30.0801 41.1278 28.3681C40.3612 26.8621 39.1374 25.6376 37.6318 24.8701" stroke="white" stroke-width="3" stroke-linecap="round" stroke-linejoin="round"/>
<path d="M2 38.0001V36.8001C2 32.3201 2 30.0801 2.872 28.3681C3.63864 26.8621 4.86247 25.6376 6.368 24.8701" stroke="white" stroke-width="3" stroke-linecap="round" stroke-linejoin="round"/>
</svg>
